<svg width="20" height="20" viewBox="0 0 20 20" fill="none" xmlns="http://www.w3.org/2000/svg">
<path d="M10.0007 10.4166C10.2307 10.4166 10.4173 10.23 10.4173 9.99992C10.4173 9.76984 10.2307 9.58325 10.0007 9.58325C9.77057 9.58325 9.58398 9.76984 9.58398 9.99992C9.58398 10.23 9.77057 10.4166 10.0007 10.4166Z" fill="black" stroke="black" stroke-width="1.5" stroke-linecap="round" stroke-linejoin="round"/>
<path d="M10.0007 17.0833C10.2307 17.0833 10.4173 16.8967 10.4173 16.6667C10.4173 16.4366 10.2307 16.25 10.0007 16.25C9.77057 16.25 9.58398 16.4366 9.58398 16.6667C9.58398 16.8967 9.77057 17.0833 10.0007 17.0833Z" fill="black" stroke="black" stroke-width="1.5" stroke-linecap="round" stroke-linejoin="round"/>
<path d="M10.0007 3.75008C10.2307 3.75008 10.4173 3.56353 10.4173 3.33341C10.4173 3.1033 10.2307 2.91675 10.0007 2.91675C9.77057 2.91675 9.58398 3.1033 9.58398 3.33341C9.58398 3.56353 9.77057 3.75008 10.0007 3.75008Z" fill="black" stroke="black" stroke-width="1.5" stroke-linecap="round" stroke-linejoin="round"/>
</svg>
